# xmcd
#
# Track frame offsets:
# 150
# 10937
# 29437
# 40061
# 60821
# 75694
# 110925
# 122609
# 145088
# 155598
# 178734
#
# Disc length: 2683 seconds
#
#
# Revision: 0
# Processed by: cddbd v1.5.2PL0 Copyright (c) Steve Scherf et al.
# Submitted via: FreeRIP 2.941 
#
DISCID=8a0a790b
DTITLE=The Kindreds - Checkin' Out
DYEAR=2008
DGENRE=Bluegrass
TTITLE0=Checkin' Out
TTITLE1=Forever Winter
TTITLE2=When You Fly
TTITLE3=Fool's Prayer
TTITLE4=Wild Roses
TTITLE5=Whiskey Moon
TTITLE6=Joe's Been A-gettin' There
TTITLE7=This Old Farm
TTITLE8=Old Slewfoot
TTITLE9=Wayfarin' Stranger
TTITLE10=One Thing Leads to Another
EXTD=
EXTT0=
EXTT1=
EXTT2=
EXTT3=
EXTT4=
EXTT5=
EXTT6=
EXTT7=
EXTT8=
EXTT9=
EXTT10=
PLAYORDER=
